<svg width="40" height="41" viewBox="0 0 40 41" fill="none" xmlns="http://www.w3.org/2000/svg">
<path d="M34.5455 3.47001H34C33.6383 3.47001 33.2915 3.61368 33.0358 3.86941C32.78 4.12514 32.6364 4.47199 32.6364 4.83365C32.6364 5.19531 32.78 5.54215 33.0358 5.79788C33.2915 6.05362 33.6383 6.19728 34 6.19728H34.5455C34.8621 6.19727 35.166 6.32245 35.3908 6.54554C35.6156 6.76862 35.7431 7.07151 35.7455 7.38819V13.4427H4.29091V7.38819C4.29312 7.07771 4.41559 6.78017 4.63258 6.55809C4.84957 6.33601 5.1442 6.20668 5.45455 6.19728H6.13636C6.49802 6.19728 6.84487 6.05362 7.1006 5.79788C7.35633 5.54215 7.5 5.19531 7.5 4.83365C7.5 4.47199 7.35633 4.12514 7.1006 3.86941C6.84487 3.61368 6.49802 3.47001 6.13636 3.47001H5.45455C4.42086 3.47958 3.43262 3.89632 2.70422 4.62983C1.97581 5.36334 1.56599 6.35446 1.56364 7.38819V36.6427C1.56357 37.6789 1.97205 38.6733 2.70045 39.4102C3.42886 40.1471 4.41845 40.5671 5.45455 40.5791H34.5455C35.5863 40.5767 36.5838 40.1622 37.3198 39.4262C38.0558 38.6902 38.4703 37.6927 38.4727 36.6518V7.38819C38.4703 6.34819 38.0555 5.35161 37.3192 4.61707C36.583 3.88252 35.5855 3.47001 34.5455 3.47001ZM34.5455 37.8518H5.45455C5.13702 37.8494 4.83318 37.7223 4.60865 37.4977C4.38412 37.2732 4.25692 36.9694 4.25455 36.6518V16.17H35.7091V36.6427C35.7093 36.9557 35.5882 37.2565 35.3712 37.482C35.1542 37.7075 34.8582 37.8401 34.5455 37.8518Z" fill="#5EC846"/>
<path d="M33.2182 24.3427C33.5798 24.3427 33.9267 24.1991 34.1824 23.9433C34.4382 23.6876 34.5818 23.3408 34.5818 22.9791C34.5818 22.6174 34.4382 22.2706 34.1824 22.0149C33.9267 21.7591 33.5798 21.6155 33.2182 21.6155H29.8364V18.1518C29.8364 17.7902 29.6927 17.4433 29.437 17.1876C29.1812 16.9319 28.8344 16.7882 28.4727 16.7882C28.1111 16.7882 27.7642 16.9319 27.5085 17.1876C27.2528 17.4433 27.1091 17.7902 27.1091 18.1518V21.6155H21.4091V18.1518C21.4091 17.7902 21.2654 17.4433 21.0097 17.1876C20.754 16.9319 20.4071 16.7882 20.0455 16.7882C19.6838 16.7882 19.337 16.9319 19.0812 17.1876C18.8255 17.4433 18.6818 17.7902 18.6818 18.1518V21.6155H12.9818V18.1518C12.9818 17.7902 12.8381 17.4433 12.5824 17.1876C12.3267 16.9319 11.9798 16.7882 11.6182 16.7882C11.2565 16.7882 10.9097 16.9319 10.6539 17.1876C10.3982 17.4433 10.2545 17.7902 10.2545 18.1518V21.6155H6.78182C6.42016 21.6155 6.07331 21.7591 5.81758 22.0149C5.56185 22.2706 5.41818 22.6174 5.41818 22.9791C5.41818 23.3408 5.56185 23.6876 5.81758 23.9433C6.07331 24.1991 6.42016 24.3427 6.78182 24.3427H10.2545V29.7973H6.78182C6.42016 29.7973 6.07331 29.941 5.81758 30.1967C5.56185 30.4524 5.41818 30.7993 5.41818 31.1609C5.41818 31.5226 5.56185 31.8694 5.81758 32.1252C6.07331 32.3809 6.42016 32.5246 6.78182 32.5246H10.2545V36.0336C10.2545 36.3953 10.3982 36.7422 10.6539 36.9979C10.9097 37.2536 11.2565 37.3973 11.6182 37.3973C11.9798 37.3973 12.3267 37.2536 12.5824 36.9979C12.8381 36.7422 12.9818 36.3953 12.9818 36.0336V32.5155H18.6818V36.0336C18.6818 36.3953 18.8255 36.7422 19.0812 36.9979C19.337 37.2536 19.6838 37.3973 20.0455 37.3973C20.4071 37.3973 20.754 37.2536 21.0097 36.9979C21.2654 36.7422 21.4091 36.3953 21.4091 36.0336V32.5155H27.1091V36.0336C27.1091 36.3953 27.2528 36.7422 27.5085 36.9979C27.7642 37.2536 28.1111 37.3973 28.4727 37.3973C28.8344 37.3973 29.1812 37.2536 29.437 36.9979C29.6927 36.7422 29.8364 36.3953 29.8364 36.0336V32.5155H33.2182C33.5798 32.5155 33.9267 32.3718 34.1824 32.1161C34.4382 31.8603 34.5818 31.5135 34.5818 31.1518C34.5818 30.7902 34.4382 30.4433 34.1824 30.1876C33.9267 29.9319 33.5798 29.7882 33.2182 29.7882H29.8364V24.3336L33.2182 24.3427ZM12.9818 29.7973V24.3427H18.6818V29.7973H12.9818ZM27.1091 29.7973H21.4091V24.3427H27.1091V29.7973Z" fill="#5EC846"/>
<path d="M14.7182 6.19728H25.4545C25.6336 6.19728 25.8109 6.16201 25.9764 6.09348C26.1418 6.02495 26.2922 5.92451 26.4188 5.79788C26.5454 5.67126 26.6459 5.52093 26.7144 5.35549C26.7829 5.19004 26.8182 5.01272 26.8182 4.83365C26.8182 4.65457 26.7829 4.47725 26.7144 4.31181C26.6459 4.14636 26.5454 3.99604 26.4188 3.86941C26.2922 3.74279 26.1418 3.64234 25.9764 3.57381C25.8109 3.50528 25.6336 3.47001 25.4545 3.47001H14.7182C14.3565 3.47001 14.0097 3.61368 13.7539 3.86941C13.4982 4.12514 13.3545 4.47199 13.3545 4.83365C13.3545 5.19531 13.4982 5.54215 13.7539 5.79788C14.0097 6.05362 14.3565 6.19728 14.7182 6.19728Z" fill="#5EC846"/>
<path d="M10.4455 9.03365C11.5636 9.03365 12.4727 7.08819 12.4909 4.75183C12.5091 2.41547 11.6182 0.579102 10.5 0.579102C9.38182 0.579102 8.46364 2.46092 8.44546 4.79728C8.42727 7.13365 9.32727 9.02456 10.4455 9.03365Z" fill="#5EC846"/>
<path d="M29.6909 9.03365C30.8091 9.03365 31.7182 7.08819 31.7364 4.75183C31.7545 2.41547 30.9091 0.579102 29.7455 0.579102C28.5818 0.579102 27.7091 2.45183 27.6909 4.78819C27.6727 7.12456 28.5727 9.02456 29.6909 9.03365Z" fill="#5EC846"/>
</svg>
