<svg width="40" height="41" viewBox="0 0 40 41" fill="none" xmlns="http://www.w3.org/2000/svg">
<path d="M19.9999 23.4037C19.536 23.4486 19.0724 23.314 18.7046 23.0276C18.3368 22.7412 18.0928 22.3247 18.0227 21.8638H20.5557V20.6247H17.9043C17.8948 20.4912 17.8948 20.3572 17.9043 20.2237C17.8948 20.0872 17.8948 19.9502 17.9043 19.8137H20.5922V18.5837H18.0592C18.129 18.1296 18.3678 17.7187 18.7276 17.4332C19.0875 17.1477 19.5419 17.0086 19.9999 17.0438C20.4462 17.0109 20.8876 17.155 21.2285 17.4448C21.5695 17.7347 21.7828 18.147 21.8223 18.5928L24.2004 18.0825C24.0428 17.111 23.5204 16.2362 22.7398 15.6368C21.9592 15.0373 20.9792 14.7584 19.9999 14.857C18.9144 14.8061 17.8485 15.1586 17.0074 15.8467C16.1663 16.5347 15.6094 17.5096 15.4441 18.5837H14.2596V19.8137H15.3621C15.3526 19.9502 15.3526 20.0872 15.3621 20.2237C15.3526 20.3572 15.3526 20.4912 15.3621 20.6247H14.2596V21.8638H15.4897C15.605 22.9388 16.1329 23.927 16.9623 24.6204C17.7917 25.3138 18.8578 25.6583 19.9362 25.5814C22.3659 25.5814 23.8268 24.5062 24.3188 22.3559L21.9225 21.8456C21.9047 22.0765 21.84 22.3014 21.7323 22.5065C21.6247 22.7115 21.4764 22.8925 21.2965 23.0383C21.1165 23.1841 20.9088 23.2917 20.6858 23.3546C20.4629 23.4174 20.2295 23.4341 19.9999 23.4037Z" fill="#25465F"/>
<path d="M11.7995 12.4424C12.6013 11.6497 11.8633 9.62696 10.2141 7.95953C8.56488 6.29211 6.67878 5.62696 5.87695 6.41967C5.07513 7.21238 5.76762 9.15315 7.4077 10.857C9.04779 12.5609 11.0341 13.226 11.7995 12.4424Z" fill="#25465F"/>
<path d="M28.2004 28.7158C27.4077 29.4994 28.091 31.4492 29.7311 33.1531C31.3712 34.857 33.3758 35.5221 34.1503 34.7385C34.9247 33.9549 34.214 31.9139 32.5648 30.2556C30.9156 28.5973 28.9749 27.9231 28.2004 28.7158Z" fill="#25465F"/>
<path d="M32.6195 10.8206C34.2869 9.18049 34.9521 7.25794 34.1594 6.45612C33.3667 5.6543 31.4259 6.34678 29.722 7.98687C28.0181 9.62696 27.353 11.6315 28.1366 12.406C28.9202 13.1805 30.9339 12.4698 32.6195 10.8206Z" fill="#25465F"/>
<path d="M7.42593 30.283C5.76762 31.923 5.05691 33.9276 5.84051 34.7021C6.62411 35.4766 8.66511 34.7659 10.3234 33.1167C11.9817 31.4675 12.656 29.554 11.8633 28.7522C11.0706 27.9504 9.06602 28.6429 7.42593 30.283Z" fill="#25465F"/>
<path d="M35.7812 18.5563C33.4396 18.5563 31.5443 19.4675 31.5352 20.5518C31.5261 21.636 33.4851 22.5928 35.8177 22.6019C38.1503 22.611 39.9908 21.6907 39.9999 20.6064C40.009 19.5222 38.1138 18.5654 35.7812 18.5563Z" fill="#25465F"/>
<path d="M8.46465 20.5791C8.46465 19.4584 6.58766 18.5381 4.24598 18.529C1.9043 18.5199 0.00908223 19.4401 -2.9378e-05 20.5791C-0.00914098 21.7181 1.94985 22.6201 4.29154 22.6292C6.63322 22.6383 8.45554 21.7272 8.46465 20.5791Z" fill="#25465F"/>
<path d="M19.9999 32.1144C18.8792 32.1144 17.9589 34.0643 17.9498 36.3968C17.9407 38.7294 18.861 40.57 19.9453 40.5791C21.0295 40.5882 21.9863 38.693 21.9954 36.3604C22.0045 34.0278 21.1389 32.1235 19.9999 32.1144Z" fill="#25465F"/>
<path d="M19.9999 9.04381C21.1207 9.04381 22.0409 7.16682 22.0501 4.82514C22.0592 2.48346 21.1389 0.588245 19.9999 0.579133C18.861 0.570022 17.9589 2.52902 17.9498 4.8707C17.9407 7.21238 18.8519 9.0347 19.9999 9.04381Z" fill="#25465F"/>
<path d="M19.8815 9.78185C17.8163 9.78185 15.7974 10.3943 14.0803 11.5416C12.3631 12.689 11.0248 14.3198 10.2344 16.2278C9.44411 18.1358 9.23733 20.2353 9.64023 22.2609C10.0431 24.2864 11.0376 26.147 12.498 27.6073C13.9583 29.0676 15.8188 30.0621 17.8444 30.465C19.8699 30.8679 21.9694 30.6611 23.8774 29.8708C25.7854 29.0805 27.4162 27.7421 28.5636 26.025C29.711 24.3078 30.3234 22.289 30.3234 20.2237C30.321 17.4551 29.2201 14.8006 27.2624 12.8429C25.3046 10.8852 22.6501 9.78426 19.8815 9.78185ZM19.8815 27.9231C18.3565 27.9231 16.8658 27.4707 15.598 26.6233C14.3301 25.7759 13.3421 24.5715 12.759 23.1624C12.1758 21.7534 12.0237 20.203 12.3219 18.7074C12.62 17.2119 13.3551 15.8384 14.434 14.7607C15.513 13.6831 16.8874 12.9496 18.3832 12.6532C19.8791 12.3568 21.4293 12.5108 22.8377 13.0956C24.2461 13.6804 25.4493 14.6699 26.2952 15.9387C27.1411 17.2075 27.5917 18.6988 27.5899 20.2237C27.5875 22.2666 26.7743 24.2249 25.3289 25.6685C23.8836 27.1122 21.9243 27.9231 19.8815 27.9231Z" fill="#25465F"/>
</svg>
