<svg width="40" height="41" viewBox="0 0 40 41" fill="none" xmlns="http://www.w3.org/2000/svg">
<path d="M36.0025 28.3953L33.1291 20.3535L35.6666 13.5806C35.7013 13.4966 35.7263 13.409 35.7413 13.3194L36.1984 10.4647C36.251 9.97963 36.1338 9.49136 35.8667 9.08308C35.5996 8.6748 35.1992 8.37178 34.7337 8.22567L26.2442 5.42693L21.2904 1.08888C21.0902 0.908781 20.8555 0.771254 20.6005 0.684654C20.3455 0.598053 20.0756 0.564186 19.8071 0.585108C19.542 0.601396 19.2826 0.669951 19.0441 0.786828C18.8055 0.903705 18.5924 1.0666 18.4171 1.26613C18.3631 1.31209 18.316 1.36549 18.2771 1.42473L17.0084 3.08532L13.6965 6.81697L10.7019 5.47357C10.2025 5.26195 9.64019 5.25372 9.13482 5.45064C8.62945 5.64756 8.22097 6.03406 7.99642 6.52777C7.97682 6.56652 7.96119 6.60715 7.94977 6.64904C7.84945 6.91753 7.79887 7.20205 7.80051 7.48867L7.91246 9.6437L2.92137 9.21456C2.4628 9.15901 1.99902 9.26197 1.60702 9.50633C1.21502 9.75069 0.918384 10.1218 0.766341 10.558L0.159947 12.1812C-0.0385279 12.6517 -0.0527611 13.1796 0.120076 13.6601C0.292912 14.1406 0.64017 14.5385 1.09286 14.7747L6.86759 17.7787L8.47221 26.9399L6.9982 30.7555C6.8916 31.0226 6.84154 31.3089 6.85118 31.5963C6.86081 31.8838 6.92993 32.1661 7.05418 32.4254C7.17676 32.6775 7.35033 32.9013 7.56391 33.0828C7.7775 33.2642 8.02643 33.3994 8.29495 33.4796H8.44422L21.1878 37.2113C21.3993 37.2772 21.6193 37.3118 21.8409 37.3139C22.2494 37.3101 22.648 37.1872 22.9877 36.9601C23.3275 36.7331 23.5935 36.4119 23.7533 36.0358L25.134 32.8453L29.7986 34.1886C30.0253 34.2529 30.2646 34.2592 30.4944 34.2071C30.7242 34.1549 30.9372 34.0459 31.114 33.8901L35.6106 29.9066C35.8177 29.7214 35.9654 29.4791 36.0351 29.2102C36.1048 28.9413 36.0935 28.6577 36.0025 28.3953ZM29.7613 31.3433L25.19 30.0185C24.7102 29.9067 24.2063 29.9657 23.7653 30.1854C23.3243 30.4051 22.9736 30.7716 22.7738 31.222L21.3931 34.4219L9.89023 31.0261L11.1777 27.6769C11.3067 27.3213 11.3326 26.9364 11.2523 26.5667L9.54506 16.9484C9.49126 16.643 9.37159 16.3529 9.19438 16.0983C9.01716 15.8438 8.78665 15.6309 8.51885 15.4744L8.43489 15.4278L3.01466 12.629L3.2199 12.0413L8.51885 12.4984H8.83604C9.11874 12.4745 9.39386 12.3946 9.64533 12.2633C9.89681 12.1319 10.1196 11.9518 10.3007 11.7334C10.629 11.3375 10.7867 10.8275 10.7392 10.3154L10.6552 8.5242L13.0342 9.59705H13.1181C13.5177 9.7518 13.9549 9.78114 14.3716 9.68114C14.7883 9.58114 15.1646 9.35655 15.4504 9.0373L19.0794 4.94181C19.1315 4.89058 19.1784 4.83433 19.2194 4.77389L20.031 3.66372L24.4157 7.51665C24.5823 7.70204 24.7899 7.84582 25.0221 7.93646C25.0793 7.96824 25.1385 7.99628 25.1993 8.02043L33.3157 10.7165L32.9798 12.7596L30.3304 19.8871C30.2181 20.1879 30.2181 20.5192 30.3304 20.82L33.0545 28.4606L29.7613 31.3433Z" fill="#5EC846"/>
<path d="M37.5325 31.9217C36.385 31.9217 35.4521 33.9088 35.4334 36.3064C35.4147 38.7039 36.3663 40.5791 37.4858 40.5791C38.6053 40.5791 39.5662 38.6573 39.5849 36.2597C39.6035 33.8621 38.6986 31.9217 37.5325 31.9217Z" fill="#5EC846"/>
</svg>
