<svg width="36" height="41" viewBox="0 0 36 41" fill="none" xmlns="http://www.w3.org/2000/svg">
<path d="M14.4091 6.47001H19.0273C19.2081 6.47001 19.3815 6.39818 19.5094 6.27031C19.6373 6.14245 19.7091 5.96902 19.7091 5.78819C19.7091 5.60736 19.6373 5.43394 19.5094 5.30607C19.3815 5.17821 19.2081 5.10637 19.0273 5.10637H14.4091C14.2283 5.10637 14.0548 5.17821 13.927 5.30607C13.7991 5.43394 13.7273 5.60736 13.7273 5.78819C13.7273 5.96902 13.7991 6.14245 13.927 6.27031C14.0548 6.39818 14.2283 6.47001 14.4091 6.47001Z" fill="#25465F"/>
<path d="M16.7727 26.6155C19.1091 26.6155 20.9364 25.7064 20.9454 24.6246C20.9545 23.5427 19.0636 22.5882 16.7364 22.57C14.4091 22.5518 12.5091 23.4791 12.5 24.57C12.4909 25.6609 14.4454 26.5973 16.7727 26.6155Z" fill="#25465F"/>
<path d="M32.0182 26.4882H29.8182C28.9789 26.4823 28.1715 26.8092 27.5727 27.3973C27.1909 27.3155 26.7727 27.2427 26.3545 27.1882V4.07001C26.3546 3.14731 25.9893 2.26212 25.3385 1.60797C24.6878 0.953819 23.8045 0.583907 22.8818 0.579102H10.5545C9.63343 0.586298 8.75249 0.957264 8.10371 1.61116C7.45492 2.26505 7.09088 3.14887 7.0909 4.07001V26.5246L6.3 26.1064C5.38805 25.6658 4.34531 25.5784 3.37272 25.8609C2.58668 26.0985 1.9042 26.5952 1.43636 27.27C0.947541 27.9693 0.727988 28.8216 0.818177 29.67C0.877455 30.1439 1.03804 30.5994 1.28902 31.0057C1.54001 31.412 1.87551 31.7595 2.27272 32.0246L3.9909 33.1973C5.52727 34.2609 7.43636 35.5882 9.35454 36.8336C10.9727 37.87 12.2909 38.6518 13.3909 39.2246C14.4926 39.9031 15.738 40.3141 17.0273 40.4246C18.6614 40.3953 20.2907 40.2373 21.9 39.9518C23.7441 39.5966 25.6255 39.4745 27.5 39.5882C27.7975 39.9039 28.1569 40.1548 28.5558 40.3253C28.9547 40.4958 29.3844 40.5822 29.8182 40.5791H32C32.8439 40.5791 33.6532 40.2439 34.2499 39.6472C34.8466 39.0505 35.1818 38.2412 35.1818 37.3973V29.67C35.1818 28.8293 34.8491 28.0227 34.2563 27.4265C33.6635 26.8303 32.8589 26.493 32.0182 26.4882ZM9.81818 4.07001C9.81573 3.87144 9.89166 3.6799 10.0295 3.53695C10.1674 3.39399 10.356 3.31114 10.5545 3.30637H22.8818C23.0828 3.30636 23.2756 3.38557 23.4186 3.52681C23.5615 3.66806 23.6431 3.85997 23.6454 4.06092V27.1155C22.7047 27.2154 21.776 27.4072 20.8727 27.6882L20.7 27.7336C20.0382 27.9676 19.3463 28.1054 18.6454 28.1427L15.4 28.0609C14.8267 27.9965 14.2463 28.073 13.7093 28.2837C13.1723 28.4944 12.6947 28.833 12.3182 29.27L9.81818 27.9518V4.07001ZM21.5454 37.2336C20.0689 37.5016 18.5732 37.6506 17.0727 37.6791C16.217 37.5402 15.3978 37.2311 14.6636 36.77C13.6364 36.2427 12.3909 35.5064 10.8454 34.5155C8.90909 33.3064 7.09091 32.0064 5.54545 30.9609C4.85454 30.4882 4.26363 30.0518 3.8 29.7609C3.72718 29.7149 3.66513 29.6537 3.61807 29.5815C3.57101 29.5094 3.54004 29.4279 3.52727 29.3427C3.51245 29.1525 3.56384 28.963 3.67272 28.8064C3.79167 28.644 3.96113 28.5257 4.15454 28.47C4.45726 28.3839 4.78114 28.4131 5.06363 28.5518L11.5818 31.9609C11.6945 32.6821 12.035 33.3482 12.5535 33.8619C13.0721 34.3755 13.7415 34.7097 14.4636 34.8155H14.5545L19.2 35.1609H19.3C19.6617 35.1742 20.0138 35.0432 20.2789 34.7969C20.544 34.5505 20.7004 34.2089 20.7136 33.8473C20.7269 33.4856 20.5959 33.1335 20.3496 32.8684C20.1032 32.6033 19.7617 32.4469 19.4 32.4336L14.8091 32.0973C14.6363 32.062 14.4832 31.9628 14.3804 31.8196C14.2776 31.6763 14.2327 31.4995 14.2545 31.3246C14.3182 30.9155 14.7727 30.7246 15.2454 30.77L18.6182 30.8609C19.5873 30.8319 20.5465 30.6572 21.4636 30.3427H21.6364C22.6667 30.0055 23.7432 29.8306 24.8273 29.8246H24.9727C25.5382 29.8526 26.1006 29.9256 26.6545 30.0427V36.8155C24.9364 36.8012 23.2204 36.9412 21.5273 37.2336H21.5454ZM32.4545 37.3882C32.4522 37.508 32.4036 37.6223 32.3188 37.707C32.2341 37.7918 32.1198 37.8404 32 37.8427H29.8182C29.6984 37.8404 29.5841 37.7918 29.4993 37.707C29.4146 37.6223 29.366 37.508 29.3636 37.3882V29.67C29.366 29.5502 29.4146 29.4359 29.4993 29.3512C29.5841 29.2664 29.6984 29.2178 29.8182 29.2155H32C32.1198 29.2178 32.2341 29.2664 32.3188 29.3512C32.4036 29.4359 32.4522 29.5502 32.4545 29.67V37.3882Z" fill="#25465F"/>
</svg>
