<svg width="36" height="41" viewBox="0 0 36 41" fill="none" xmlns="http://www.w3.org/2000/svg">
<path d="M13.1574 11.7295H8.16231C7.96672 11.7295 7.77914 11.8072 7.64084 11.9455C7.50254 12.0838 7.42484 12.2714 7.42484 12.467C7.42484 12.6626 7.50254 12.8502 7.64084 12.9885C7.77914 13.1268 7.96672 13.2045 8.16231 13.2045H13.1574C13.353 13.2045 13.5406 13.1268 13.6789 12.9885C13.8172 12.8502 13.8949 12.6626 13.8949 12.467C13.8949 12.2714 13.8172 12.0838 13.6789 11.9455C13.5406 11.8072 13.353 11.7295 13.1574 11.7295Z" fill="#5EC846"/>
<path d="M6.06791 32.7325C6.06791 33.9419 8.17214 34.9252 10.6992 34.9449C13.2262 34.9645 15.1928 33.9616 15.2026 32.7915C15.2125 31.6214 13.1672 30.5889 10.65 30.5693C8.13281 30.5496 6.06791 31.5231 6.06791 32.7325Z" fill="#5EC846"/>
<path d="M19.6274 18.4159C19.2362 18.4159 18.8611 18.5713 18.5845 18.8479C18.3079 19.1245 18.1525 19.4996 18.1525 19.8908V36.8033C18.1499 37.0216 18.0621 37.2302 17.9077 37.3845C17.7534 37.5389 17.5448 37.6267 17.3265 37.6292H3.99318C3.77583 37.6267 3.56826 37.5385 3.41549 37.3839C3.26271 37.2293 3.17704 37.0207 3.17706 36.8033V10.5594C3.18219 10.3464 3.27044 10.1438 3.42294 9.99502C3.57544 9.84619 3.7801 9.76291 3.99318 9.76298H12.8427C13.2339 9.76298 13.6091 9.60758 13.8857 9.33098C14.1623 9.05438 14.3177 8.67922 14.3177 8.28805C14.3177 7.89687 14.1623 7.52172 13.8857 7.24512C13.6091 6.96852 13.2339 6.81312 12.8427 6.81312H3.99318C2.99518 6.81572 2.0388 7.21332 1.3331 7.91902C0.627404 8.62472 0.229799 9.5811 0.227203 10.5791V36.8033C0.2272 37.803 0.623657 38.7619 1.32963 39.4697C2.03561 40.1775 2.99348 40.5765 3.99318 40.5791H17.3265C18.3279 40.5791 19.2883 40.1813 19.9964 39.4732C20.7045 38.7651 21.1023 37.8047 21.1023 36.8033V19.8908C21.1023 19.4996 20.9469 19.1245 20.6703 18.8479C20.3937 18.5713 20.0186 18.4159 19.6274 18.4159Z" fill="#5EC846"/>
<path d="M23.1672 10.4316L21.1417 12.3982V2.05403C21.1417 1.66285 20.9863 1.2877 20.7097 1.0111C20.4331 0.734495 20.0579 0.579102 19.6667 0.579102C19.2756 0.579102 18.9004 0.734495 18.6238 1.0111C18.3472 1.2877 18.1918 1.66285 18.1918 2.05403V12.3097L16.2252 10.3431C16.0941 10.1879 15.9323 10.0614 15.7499 9.97161C15.5676 9.88185 15.3687 9.83074 15.1656 9.82149C14.9626 9.81224 14.7599 9.84505 14.5701 9.91785C14.3804 9.99066 14.2077 10.1019 14.063 10.2446C13.9183 10.3873 13.8046 10.5583 13.7291 10.747C13.6536 10.9357 13.6179 11.138 13.6243 11.3411C13.6307 11.5443 13.679 11.7439 13.7661 11.9275C13.8533 12.1111 13.9775 12.2747 14.1308 12.408L18.4573 16.7935C18.5931 16.979 18.7707 17.13 18.9757 17.2342C19.1807 17.3384 19.4073 17.3929 19.6372 17.3933C19.8287 17.3942 20.0184 17.3573 20.1956 17.2847C20.3728 17.2122 20.5339 17.1054 20.6697 16.9704L25.183 12.5162C25.4449 12.2378 25.5886 11.8686 25.5838 11.4864C25.5789 11.1042 25.4258 10.7388 25.1568 10.4673C24.8878 10.1957 24.5239 10.0392 24.1417 10.0307C23.7595 10.0222 23.389 10.1624 23.1082 10.4218L23.1672 10.4316Z" fill="#5EC846"/>
<path d="M35.0846 5.56435L30.7582 1.1789C30.6224 0.993345 30.4448 0.842357 30.2398 0.738156C30.0348 0.633955 29.8082 0.579468 29.5782 0.579102C29.1904 0.580971 28.8191 0.736557 28.5458 1.01175L24.003 5.45619C23.8648 5.59242 23.7549 5.75453 23.6794 5.93326C23.6038 6.11199 23.5643 6.30385 23.5629 6.49788C23.5615 6.6919 23.5984 6.8843 23.6714 7.06408C23.7444 7.24386 23.852 7.4075 23.9883 7.54567C24.2634 7.82471 24.6381 7.98302 25.03 7.98579C25.224 7.98716 25.4164 7.9503 25.5962 7.87731C25.7759 7.80433 25.9396 7.69665 26.0777 7.56042L28.1033 5.59385V15.9282C28.1033 16.3193 28.2587 16.6945 28.5353 16.9711C28.8119 17.2477 29.1871 17.4031 29.5782 17.4031C29.9694 17.4031 30.3446 17.2477 30.6212 16.9711C30.8978 16.6945 31.0532 16.3193 31.0532 15.9282V5.68235L33.0197 7.64892C33.1551 7.78857 33.3171 7.89968 33.4961 7.97568C33.6751 8.05168 33.8675 8.09103 34.062 8.09139C34.4524 8.08788 34.8262 7.93274 35.1043 7.65875C35.2413 7.52034 35.3495 7.35618 35.4227 7.17575C35.4959 6.99531 35.5326 6.80216 35.5308 6.60745C35.5289 6.41274 35.4886 6.22032 35.412 6.04129C35.3354 5.86226 35.2242 5.70016 35.0846 5.56435Z" fill="#5EC846"/>
</svg>
