<svg width="25" height="41" viewBox="0 0 25 41" fill="none" xmlns="http://www.w3.org/2000/svg">
<path d="M20.3182 0.579195H4.68182C4.15783 0.575598 3.6383 0.6757 3.15315 0.873737C2.668 1.07177 2.22683 1.36383 1.85503 1.73309C1.48324 2.10235 1.18817 2.54152 0.986817 3.0253C0.785466 3.50908 0.681811 4.02791 0.681824 4.55192V36.6065C0.681811 37.1305 0.785466 37.6493 0.986817 38.1331C1.18817 38.6169 1.48324 39.056 1.85503 39.4253C2.22683 39.7946 2.668 40.0866 3.15315 40.2847C3.6383 40.4827 4.15783 40.5828 4.68182 40.5792H20.3182C20.8422 40.5828 21.3617 40.4827 21.8469 40.2847C22.332 40.0866 22.7732 39.7946 23.145 39.4253C23.5168 39.056 23.8118 38.6169 24.0132 38.1331C24.2145 37.6493 24.3182 37.1305 24.3182 36.6065V4.55192C24.3182 4.02791 24.2145 3.50908 24.0132 3.0253C23.8118 2.54152 23.5168 2.10235 23.145 1.73309C22.7732 1.36383 22.332 1.07177 21.8469 0.873737C21.3617 0.6757 20.8422 0.575598 20.3182 0.579195ZM21.5909 36.6065C21.5922 36.7727 21.56 36.9375 21.4961 37.091C21.4323 37.2445 21.3381 37.3835 21.2193 37.4998C21.1005 37.616 20.9595 37.7071 20.8046 37.7676C20.6498 37.8282 20.4844 37.8568 20.3182 37.8519H4.68182C4.51566 37.8568 4.35022 37.8282 4.19538 37.7676C4.04055 37.7071 3.89951 37.616 3.7807 37.4998C3.66189 37.3835 3.56774 37.2445 3.50389 37.091C3.44004 36.9375 3.4078 36.7727 3.4091 36.6065V4.55192C3.4078 4.38569 3.44004 4.22091 3.50389 4.06742C3.56774 3.91394 3.66189 3.7749 3.7807 3.65864C3.89951 3.54237 4.04055 3.45126 4.19538 3.39075C4.35022 3.33024 4.51566 3.30157 4.68182 3.30647H20.3182C20.4844 3.30157 20.6498 3.33024 20.8046 3.39075C20.9595 3.45126 21.1005 3.54237 21.2193 3.65864C21.3381 3.7749 21.4323 3.91394 21.4961 4.06742C21.56 4.22091 21.5922 4.38569 21.5909 4.55192V36.6065Z" fill="#25465F"/>
<path d="M9.53637 7.00647H15.4636C15.6445 7.00647 15.8179 6.93463 15.9458 6.80677C16.0736 6.6789 16.1455 6.50548 16.1455 6.32465C16.1455 6.14382 16.0736 5.9704 15.9458 5.84253C15.8179 5.71467 15.6445 5.64283 15.4636 5.64283H9.53637C9.35554 5.64283 9.18212 5.71467 9.05425 5.84253C8.92638 5.9704 8.85455 6.14382 8.85455 6.32465C8.85455 6.50548 8.92638 6.6789 9.05425 6.80677C9.18212 6.93463 9.35554 7.00647 9.53637 7.00647Z" fill="#25465F"/>
<path d="M12.5 30.961C10.1727 30.961 8.27273 31.8701 8.27273 32.961C8.27273 34.0519 10.2091 34.9883 12.5455 35.0065C14.8818 35.0247 16.7091 34.0974 16.7091 33.0156C16.7091 31.9337 14.8455 30.9792 12.5 30.961Z" fill="#25465F"/>
</svg>
