<svg width="28" height="41" viewBox="0 0 28 41" fill="none" xmlns="http://www.w3.org/2000/svg">
<path d="M7.82189 8.11179C7.94444 8.21681 8.1005 8.27452 8.26189 8.27452C8.42328 8.27452 8.57934 8.21681 8.70189 8.11179C8.82838 8.01445 8.91636 7.87551 8.95026 7.71955C8.98417 7.56358 8.96181 7.40065 8.88715 7.25958L5.66358 0.923596C5.60932 0.830652 5.53422 0.751583 5.44418 0.692626C5.35415 0.633669 5.25165 0.596435 5.14476 0.58386C5.03788 0.571286 4.92954 0.583714 4.82828 0.620167C4.72702 0.656619 4.63561 0.716097 4.56127 0.793912L2.76422 2.86886C2.69906 2.93947 2.64927 3.02283 2.61797 3.11367C2.58668 3.20451 2.57456 3.30085 2.5824 3.39661C2.59023 3.49237 2.61784 3.58547 2.66349 3.67001C2.70913 3.75456 2.77182 3.82872 2.84758 3.8878L7.82189 8.11179ZM4.904 2.48907L6.06189 4.81411L4.27411 3.23938L4.904 2.48907Z" fill="#25465F"/>
<path d="M9.77641 6.14801C9.86114 6.18495 9.95262 6.20387 10.045 6.20359C10.2277 6.2049 10.4038 6.13515 10.536 6.00906L14.0004 2.63728C14.0885 2.54915 14.1519 2.4395 14.1844 2.31923C14.2169 2.19897 14.2173 2.07229 14.1857 1.9518C14.15 1.8316 14.0833 1.72292 13.9922 1.63673C13.9011 1.55053 13.7889 1.48987 13.6669 1.46086L10.2952 0.673491C10.1944 0.650306 10.0897 0.649917 9.9887 0.672353C9.88774 0.694789 9.79306 0.739483 9.71157 0.803175C9.62994 0.867371 9.56352 0.948831 9.51708 1.04172C9.47064 1.1346 9.44532 1.23661 9.44294 1.34044L9.35031 5.49959C9.35118 5.63726 9.39187 5.77175 9.46748 5.88681C9.54309 6.00186 9.65038 6.09258 9.77641 6.14801ZM10.8139 2.22044L12.12 2.52612L10.7768 3.83222L10.8139 2.22044Z" fill="#25465F"/>
<path d="M19.688 13.3455L15.2324 11.8356C15.1467 11.805 15.0557 11.7917 14.9649 11.7966C14.874 11.8015 14.785 11.8245 14.7031 11.8641C14.6212 11.9038 14.548 11.9594 14.4878 12.0276C14.4276 12.0959 14.3815 12.1755 14.3524 12.2617C14.2913 12.4327 14.2986 12.6206 14.3729 12.7864C14.4471 12.9521 14.5825 13.0827 14.7507 13.1509L19.2063 14.6608C19.2798 14.6742 19.3551 14.6742 19.4286 14.6608C19.5931 14.6605 19.7521 14.6018 19.8773 14.4952C20.0026 14.3886 20.0859 14.2411 20.1126 14.0788C20.1393 13.9165 20.1075 13.75 20.023 13.609C19.9384 13.4679 19.8066 13.3614 19.6509 13.3084L19.688 13.3455Z" fill="#25465F"/>
<path d="M11.7495 29.4448C9.50778 28.6667 7.38652 28.9075 7.00674 29.9821C6.62695 31.0566 8.26652 32.6035 10.4711 33.3631C12.6758 34.1227 14.7692 33.8819 15.1027 32.8073C15.4362 31.7328 14.0004 30.2229 11.7495 29.4448Z" fill="#25465F"/>
<path d="M24.8846 10.2423L12.9907 6.20359C12.7824 6.13412 12.5606 6.11469 12.3433 6.14688C12.1261 6.17907 11.9195 6.26196 11.7402 6.38885C11.1381 6.82422 11.0084 6.91685 10.9806 12.2709L9.94315 10.8815C9.78839 10.683 9.58231 10.5306 9.34721 10.4408C9.1121 10.351 8.85692 10.3272 8.60926 10.372C8.3588 10.412 8.12392 10.5193 7.92975 10.6824C7.73559 10.8456 7.58944 11.0585 7.50694 11.2983L0.541061 31.844C0.249547 32.731 0.319456 33.6972 0.73563 34.533C1.1518 35.3688 1.88069 36.0069 2.76422 36.3088L14.6581 40.3846C15.0243 40.5128 15.4095 40.5785 15.7975 40.5791C16.3435 40.5753 16.8817 40.4486 17.3722 40.2086C17.791 40.0029 18.1647 39.716 18.4716 39.3645C18.7786 39.0131 19.0125 38.6041 19.16 38.1614L27.1078 14.7535C27.4109 13.8604 27.347 12.8836 26.9301 12.0376C26.5133 11.1917 25.7775 10.5459 24.8846 10.2423ZM24.477 13.8642L16.5292 37.2351C16.4969 37.3312 16.4459 37.42 16.3791 37.4963C16.3124 37.5726 16.2312 37.6349 16.1402 37.6797C15.9503 37.758 15.7372 37.758 15.5474 37.6797L3.63495 33.7151C3.5385 33.6828 3.44942 33.6316 3.37288 33.5646C3.29634 33.4976 3.23386 33.4161 3.18906 33.3248C3.14426 33.2334 3.11802 33.1341 3.11188 33.0326C3.10574 32.931 3.1198 32.8293 3.15327 32.7332L9.2762 14.6608L11.2307 17.273C11.4052 17.5057 11.6483 17.6778 11.9258 17.765C12.2033 17.8522 12.5011 17.8501 12.7773 17.759C13.0535 17.668 13.2942 17.4925 13.4655 17.2574C13.6367 17.0224 13.7298 16.7395 13.7318 16.4486C13.7318 13.892 13.7318 11.1316 13.7966 9.4179L23.9861 12.8823C24.0834 12.9137 24.1734 12.9642 24.2509 13.0308C24.3285 13.0974 24.392 13.1788 24.4377 13.2702C24.4834 13.3616 24.5104 13.4612 24.5172 13.5632C24.5239 13.6652 24.5103 13.7675 24.477 13.8642Z" fill="#25465F"/>
</svg>
