<svg width="41" height="41" viewBox="0 0 41 41" fill="none" xmlns="http://www.w3.org/2000/svg">
<path d="M29.2841 13.9764C29.3991 13.9903 29.5153 13.9903 29.6302 13.9764C29.766 13.973 29.9008 13.9516 30.0309 13.9126L30.1493 13.858L30.3133 13.7942L30.4134 13.7214L30.4772 13.6759C30.5765 13.5964 30.6653 13.5046 30.7413 13.4026C30.7443 13.3815 30.7443 13.36 30.7413 13.3389C30.817 13.2269 30.8754 13.1041 30.9143 12.9746L32.7176 6.42637C32.8118 6.07613 32.763 5.70281 32.582 5.38855C32.4009 5.07428 32.1025 4.84481 31.7522 4.75061C31.402 4.6564 31.0287 4.70519 30.7144 4.88624C30.4001 5.06728 30.1707 5.36575 30.0765 5.71599L29.1657 9.12215L25.8142 3.31164C25.3238 2.47145 24.6198 1.77608 23.7735 1.29618C22.9273 0.81629 21.9692 0.56899 20.9964 0.579418C20.0192 0.573582 19.0579 0.827758 18.2113 1.31588C17.3647 1.80401 16.6631 2.50852 16.1786 3.35717L11.1786 12.0183C10.9975 12.3323 10.9485 12.7054 11.0424 13.0556C11.1363 13.4057 11.3655 13.7042 11.6795 13.8853C11.9935 14.0665 12.3666 14.1155 12.7168 14.0215C13.0669 13.9276 13.3654 13.6984 13.5465 13.3844L18.5465 4.72328C18.7955 4.29413 19.1529 3.93791 19.5828 3.69029C20.0128 3.44267 20.5002 3.31234 20.9964 3.31234C21.4925 3.31234 21.98 3.44267 22.41 3.69029C22.8399 3.93791 23.1973 4.29413 23.4463 4.72328L26.7978 10.5338L23.4007 9.62306C23.0495 9.53377 22.6772 9.58582 22.3638 9.76803C22.0505 9.95024 21.8211 10.2481 21.725 10.5976C21.6783 10.7704 21.6662 10.9508 21.6895 11.1283C21.7128 11.3058 21.771 11.4769 21.8607 11.6318C21.9505 11.7868 22.07 11.9224 22.2124 12.0309C22.3547 12.1395 22.5172 12.2187 22.6904 12.2642L29.275 14.031L29.2841 13.9764Z" fill="#5EC846"/>
<path d="M39.7303 27.4462L34.7212 18.776C34.6315 18.6205 34.5121 18.4842 34.3697 18.3749C34.2273 18.2656 34.0648 18.1854 33.8915 18.1389C33.5413 18.0449 33.1682 18.0939 32.8542 18.2751C32.5402 18.4562 32.311 18.7547 32.2171 19.1049C32.1232 19.455 32.1722 19.8281 32.3533 20.1421L37.3533 28.8123C37.6013 29.2419 37.7317 29.7292 37.7315 30.2252C37.7313 30.7212 37.6004 31.2084 37.3521 31.6377C37.1037 32.0671 36.7466 32.4234 36.3167 32.6709C35.8869 32.9183 35.3994 33.0481 34.9034 33.0473H28.2094L30.6958 30.561C30.9494 30.3037 31.0916 29.9569 31.0916 29.5956C31.0916 29.2343 30.9494 28.8875 30.6958 28.6302C30.5695 28.5024 30.4192 28.401 30.2535 28.3318C30.0878 28.2625 29.91 28.2269 29.7304 28.2269C29.5508 28.2269 29.373 28.2625 29.2073 28.3318C29.0415 28.401 28.8912 28.5024 28.765 28.6302L23.9381 33.4207C23.8784 33.4864 23.8236 33.5564 23.7741 33.6302C23.7712 33.6513 23.7712 33.6728 23.7741 33.6939C23.7384 33.7486 23.7079 33.8065 23.6831 33.8669V33.9489C23.6625 34.005 23.6473 34.063 23.6375 34.122C23.6281 34.2097 23.6281 34.2983 23.6375 34.3861C23.6286 34.4769 23.6286 34.5684 23.6375 34.6593C23.6485 34.715 23.6637 34.7698 23.6831 34.8232V34.9143C23.7099 34.9708 23.7403 35.0256 23.7741 35.0782V35.1511C23.8238 35.2218 23.8786 35.2888 23.9381 35.3515L28.765 40.1784C28.8914 40.3057 29.0419 40.4066 29.2076 40.4754C29.3733 40.5442 29.551 40.5794 29.7304 40.5791C30.0003 40.5764 30.2635 40.4942 30.4871 40.3429C30.7107 40.1916 30.8848 39.9779 30.9877 39.7283C31.0907 39.4787 31.1179 39.2044 31.066 38.9395C31.014 38.6745 30.8853 38.4308 30.6958 38.2385L28.2094 35.7522H34.9125C35.8882 35.7533 36.8471 35.4975 37.6926 35.0104C38.538 34.5232 39.2403 33.822 39.7287 32.9773C40.217 32.1325 40.4743 31.1741 40.4746 30.1983C40.4749 29.2226 40.2182 28.2639 39.7303 27.4189V27.4462Z" fill="#5EC846"/>
<path d="M7.06207 33.0473C6.56607 33.0481 6.0786 32.9183 5.64873 32.6709C5.21886 32.4234 4.86176 32.0671 4.6134 31.6377C4.36503 31.2084 4.23415 30.7212 4.23393 30.2252C4.23372 29.7292 4.36418 29.2419 4.61219 28.8123L7.96371 23.0018L8.87445 26.3989C8.95263 26.6892 9.12441 26.9457 9.36317 27.1284C9.60194 27.3112 9.89433 27.4101 10.195 27.4098C10.3128 27.4275 10.4325 27.4275 10.5502 27.4098C10.7237 27.3633 10.8864 27.2831 11.0288 27.1737C11.1713 27.0642 11.2908 26.9278 11.3805 26.7721C11.4701 26.6165 11.5282 26.4447 11.5514 26.2666C11.5746 26.0884 11.5624 25.9075 11.5156 25.734L9.76697 19.1039V19.0128C9.76697 18.9672 9.76697 18.9126 9.70322 18.858C9.6783 18.8062 9.64776 18.7573 9.61215 18.7122L9.58482 18.6303L9.45732 18.4937L9.40268 18.439C9.33286 18.3764 9.25653 18.3214 9.17499 18.2751H9.10213L8.9382 18.1931L8.67408 18.1203H8.36443C8.29184 18.1115 8.21845 18.1115 8.14585 18.1203H8.09121L1.51567 19.9053C1.16543 19.9983 0.866483 20.2266 0.684584 20.54C0.502686 20.8534 0.45274 21.2263 0.545734 21.5765C0.638728 21.9268 0.867045 22.2257 1.18046 22.4076C1.49387 22.5895 1.8667 22.6394 2.21694 22.5465L5.614 21.6357L2.29891 27.4462C1.81103 28.2913 1.55432 29.2499 1.55461 30.2256C1.5549 31.2014 1.81218 32.1599 2.30056 33.0046C2.78893 33.8493 3.49119 34.5506 4.33665 35.0377C5.18211 35.5248 6.14096 35.7807 7.11672 35.7795H17.1349C17.4972 35.7795 17.8446 35.6356 18.1008 35.3794C18.357 35.1232 18.501 34.7757 18.501 34.4134C18.501 34.0511 18.357 33.7036 18.1008 33.4474C17.8446 33.1912 17.4972 33.0473 17.1349 33.0473H7.06207Z" fill="#5EC846"/>
</svg>
