<svg width="40" height="41" viewBox="0 0 40 41" fill="none" xmlns="http://www.w3.org/2000/svg">
<path d="M11.2727 31.4882C8.94545 31.4882 7.04545 32.3973 7.03636 33.4882C7.02727 34.5791 8.98181 35.5246 11.3182 35.5337C13.6545 35.5428 15.4727 34.6246 15.4818 33.5428C15.4909 32.461 13.6364 31.4882 11.2727 31.4882Z" fill="#5EC846"/>
<path d="M37.8636 3.88824L36.4909 2.51551C36.2832 2.30956 36.0155 2.17483 35.7263 2.13072C35.4372 2.08661 35.1415 2.1354 34.8818 2.27006L31.8182 3.90642C31.6147 4.0158 31.4426 4.1754 31.3182 4.37006L30.4545 5.63369L24.6636 10.0882C25.044 8.87155 25.1024 7.57704 24.8331 6.33106C24.5638 5.08507 23.9761 3.93019 23.1273 2.97915C22.1113 1.87843 20.7874 1.1093 19.3279 0.772015C17.8685 0.434726 16.3413 0.544921 14.9455 1.08824C14.7292 1.16009 14.5345 1.28496 14.3789 1.45147C14.2234 1.61797 14.1121 1.82078 14.0551 2.04139C13.9982 2.26199 13.9974 2.49335 14.0529 2.71434C14.1084 2.93532 14.2183 3.13888 14.3727 3.30642L17.7 6.94278L15.9727 8.49733L12.6727 4.86096C12.523 4.69576 12.3352 4.56977 12.1255 4.49403C11.9158 4.41829 11.6908 4.39511 11.4701 4.42651C11.2494 4.45791 11.0398 4.54294 10.8595 4.67415C10.6793 4.80536 10.534 4.97875 10.4364 5.17915C9.77395 6.5382 9.52427 8.06156 9.71818 9.56096H5.17272C4.2517 9.56096 3.3684 9.92684 2.71714 10.5781C2.06587 11.2294 1.7 12.1127 1.7 13.0337V37.1064C1.70118 37.5652 1.79302 38.0192 1.97024 38.4424C2.14745 38.8656 2.40655 39.2495 2.73264 39.5722C3.05873 39.895 3.44539 40.15 3.87038 40.3228C4.29537 40.4956 4.75032 40.5827 5.20909 40.5791H17.4455C18.3642 40.5743 19.2437 40.2066 19.8925 39.5562C20.5413 38.9057 20.9067 38.0251 20.9091 37.1064V24.5791L24.0182 21.1155L29.3909 26.9882C29.7199 27.3603 30.1205 27.6624 30.5688 27.8763C31.017 28.0903 31.5038 28.2119 32 28.2337H32.2C32.9384 28.2368 33.6616 28.0241 34.2808 27.6219C34.9 27.2197 35.3883 26.6454 35.6856 25.9696C35.983 25.2937 36.0765 24.5457 35.9547 23.8175C35.8329 23.0892 35.5011 22.4124 35 21.8701L29.3454 15.6791L34.7 9.89733L36 9.04278C36.1946 8.91838 36.3543 8.74626 36.4636 8.54278L38.1 5.45187C38.2253 5.19837 38.2699 4.91252 38.2276 4.6329C38.1853 4.35328 38.0583 4.09337 37.8636 3.88824ZM18.6636 22.9791C17.8546 23.8357 16.9158 24.5597 15.8818 25.1246C15.4545 25.2882 14.9727 25.3701 14.2182 24.5246C13.2 23.4428 13.3091 22.761 16.1727 20.1064L24.4273 14.361L25.4273 15.4519L18.6636 22.9791ZM14.8636 11.3428C14.9829 11.4771 15.1276 11.5863 15.2895 11.6641C15.4513 11.742 15.627 11.7868 15.8063 11.7962C15.9857 11.8055 16.1651 11.779 16.3341 11.7183C16.5031 11.6577 16.6584 11.564 16.7909 11.4428L20.5364 8.06096C20.7991 7.82869 20.9593 7.50185 20.9818 7.15187C20.9985 6.78941 20.8748 6.43447 20.6364 6.16096L18.1 3.30642C19.2525 3.40164 20.3268 3.92745 21.1091 4.77915C21.7396 5.50163 22.1369 6.39788 22.2488 7.35022C22.3608 8.30257 22.1821 9.26651 21.7364 10.1155C21.6138 10.3601 21.5682 10.636 21.6056 10.907C21.6429 11.178 21.7614 11.4313 21.9454 11.6337L22.5727 12.3155L20.7545 13.5701L20.4727 13.1882C20.2948 12.945 20.0412 12.7676 19.7517 12.6837C19.4623 12.5998 19.1532 12.6142 18.8727 12.7246C17.9753 13.1128 16.9797 13.2137 16.0226 13.0135C15.0655 12.8133 14.1939 12.3218 13.5273 11.6064C12.7783 10.7724 12.3638 9.69104 12.3636 8.57006L14.8636 11.3428ZM17.4455 37.8519H5.20909C5.01138 37.8519 4.82177 37.7733 4.68197 37.6335C4.54217 37.4937 4.46363 37.3041 4.46363 37.1064V13.0246C4.46363 12.8269 4.54217 12.6373 4.68197 12.4975C4.82177 12.3577 5.01138 12.2791 5.20909 12.2791H10.6636C10.9071 12.7014 11.1935 13.0974 11.5182 13.461C11.7045 13.6685 11.905 13.8629 12.1182 14.0428H9.03636C8.85553 14.0428 8.68211 14.1146 8.55424 14.2425C8.42638 14.3703 8.35454 14.5438 8.35454 14.7246C8.35454 14.9054 8.42638 15.0789 8.55424 15.2067C8.68211 15.3346 8.85553 15.4064 9.03636 15.4064H13.5818C13.7316 15.4019 13.8756 15.3475 13.9909 15.2519C15.1096 15.7247 16.3257 15.9211 17.5364 15.8246L14.5455 17.9337L14.4 18.061C13.182 19.0558 12.1508 20.2594 11.3545 21.6155C10.9629 22.404 10.8397 23.2988 11.0038 24.1638C11.168 25.0287 11.6104 25.8163 12.2636 26.4064C12.6516 26.8792 13.1363 27.2633 13.6851 27.533C14.2339 27.8027 14.8342 27.9518 15.4455 27.9701C15.9432 27.9634 16.4358 27.868 16.9 27.6882C17.3536 27.4881 17.7836 27.2381 18.1818 26.9428V37.1064C18.1818 37.3026 18.1045 37.4908 17.9667 37.6303C17.8289 37.7699 17.6416 37.8495 17.4455 37.8519ZM32.9 25.2428C32.797 25.3364 32.6765 25.4087 32.5454 25.4555C32.4144 25.5023 32.2753 25.5227 32.1364 25.5155C31.8542 25.4972 31.5902 25.3701 31.4 25.161L25.8364 19.0791L27.2727 17.4973L32.9818 23.7519C33.169 23.959 33.2672 24.2314 33.2553 24.5104C33.2434 24.7893 33.1223 25.0523 32.9182 25.2428H32.9ZM27.5091 13.7064L26.2364 12.3155L31.3364 8.39733L31.9091 8.96097L27.5091 13.7064ZM34.2182 7.00642L33.9727 7.17006L33.2091 6.41551L33.3727 6.16096L35.1909 5.25187L34.2182 7.00642Z" fill="#5EC846"/>
</svg>
