<svg width="29" height="41" viewBox="0 0 29 41" fill="none" xmlns="http://www.w3.org/2000/svg">
<path d="M28.7864 9.83365C28.7904 9.26965 28.6223 8.71783 28.3046 8.25183L23.8955 1.7791C23.6453 1.40899 23.308 1.10599 22.9133 0.89675C22.5186 0.68751 22.0786 0.578432 21.6318 0.579105H5.10455C3.92471 0.591105 2.79781 1.07071 1.9712 1.91267C1.14458 2.75463 0.68577 3.89014 0.695463 5.07001V36.0882C0.68577 37.2681 1.14458 38.4036 1.9712 39.2455C2.79781 40.0875 3.92471 40.5671 5.10455 40.5791H24.3955C24.9792 40.5798 25.5571 40.4625 26.0945 40.2345C26.6319 40.0064 27.1176 39.6722 27.5227 39.2518C28.3448 38.4039 28.8045 37.2692 28.8046 36.0882L28.7864 9.83365ZM25.5682 37.3518C25.4158 37.509 25.2336 37.6342 25.0322 37.72C24.8308 37.8059 24.6144 37.8507 24.3955 37.8518H5.10455C4.64801 37.8399 4.21477 37.6477 3.8996 37.3172C3.58442 36.9867 3.41297 36.5448 3.42274 36.0882V5.07001C3.41297 4.61342 3.58442 4.17154 3.8996 3.84104C4.21477 3.51053 4.64801 3.31829 5.10455 3.30638H21.6409L26.0591 9.82456V36.0791C26.0668 36.551 25.8908 37.0074 25.5682 37.3518Z" fill="#25465F"/>
<path d="M22.35 15.5518H7.15001C6.78835 15.5518 6.4415 15.6955 6.18577 15.9512C5.93004 16.207 5.78637 16.5538 5.78637 16.9155V34.2155C5.78637 34.5771 5.93004 34.924 6.18577 35.1797C6.4415 35.4354 6.78835 35.5791 7.15001 35.5791H22.35C22.7117 35.5791 23.0585 35.4354 23.3142 35.1797C23.57 34.924 23.7136 34.5771 23.7136 34.2155V16.9427C23.7173 16.7614 23.6847 16.5811 23.6178 16.4125C23.5509 16.2439 23.451 16.0904 23.324 15.9608C23.197 15.8313 23.0455 15.7284 22.8782 15.6582C22.711 15.588 22.5314 15.5518 22.35 15.5518ZM20.9864 32.8246H18.65V30.5791C18.65 30.2174 18.5063 29.8706 18.2506 29.6149C17.9949 29.3591 17.648 29.2155 17.2864 29.2155C16.9247 29.2155 16.5779 29.3591 16.3221 29.6149C16.0664 29.8706 15.9227 30.2174 15.9227 30.5791V32.8518H13.5773V30.5791C13.5773 30.2174 13.4336 29.8706 13.1779 29.6149C12.9222 29.3591 12.5753 29.2155 12.2136 29.2155C11.852 29.2155 11.5051 29.3591 11.2494 29.6149C10.9937 29.8706 10.85 30.2174 10.85 30.5791V32.8518H8.51364V18.3064H10.85V20.5791C10.85 20.9408 10.9937 21.2876 11.2494 21.5433C11.5051 21.7991 11.852 21.9427 12.2136 21.9427C12.5753 21.9427 12.9222 21.7991 13.1779 21.5433C13.4336 21.2876 13.5773 20.9408 13.5773 20.5791V18.2791H15.9227V20.5791C15.9227 20.9408 16.0664 21.2876 16.3221 21.5433C16.5779 21.7991 16.9247 21.9427 17.2864 21.9427C17.648 21.9427 17.9949 21.7991 18.2506 21.5433C18.5063 21.2876 18.65 20.9408 18.65 20.5791V18.2791H20.9864V32.8246Z" fill="#25465F"/>
<path d="M14.75 23.5427C12.4136 23.5427 10.5227 24.4518 10.5136 25.5427C10.5046 26.6337 12.4591 27.5791 14.7955 27.5882C17.1318 27.5973 18.95 26.6791 18.9591 25.5973C18.9682 24.5155 17.0864 23.5609 14.75 23.5427Z" fill="#25465F"/>
</svg>
