<svg width="40" height="41" viewBox="0 0 40 41" fill="none" xmlns="http://www.w3.org/2000/svg">
<path d="M16.0818 29.4609C13.7455 29.4609 11.8545 30.37 11.8455 31.4518C11.8364 32.5336 13.7909 33.4882 16.1182 33.4972C18.4454 33.5063 20.2818 32.5882 20.2909 31.5063C20.3 30.4245 18.4091 29.47 16.0818 29.4609Z" fill="#5EC846"/>
<path d="M39.9182 29.2791C37.6364 23.1063 34.5909 18.5154 31.0364 15.87C31.8798 14.853 32.4966 13.6678 32.8456 12.3935C33.1946 11.1192 33.2679 9.78509 33.0604 8.48025C32.8529 7.17541 32.3696 5.92982 31.6425 4.82661C30.9155 3.7234 29.9615 2.78794 28.8443 2.08265C27.727 1.37737 26.4722 0.918488 25.1636 0.736628C23.8549 0.554768 22.5225 0.654113 21.2553 1.02803C19.9881 1.40195 18.8152 2.04185 17.8149 2.90502C16.8146 3.76819 16.0099 4.83478 15.4545 6.03361C13.7336 6.1371 12.0755 6.71786 10.666 7.71079C9.25661 8.70373 8.1516 10.0696 7.47485 11.6553C6.7981 13.241 6.57637 14.9838 6.83451 16.6884C7.09265 18.3931 7.82046 19.9921 8.93636 21.3063C5.45454 23.9245 2.41818 28.5063 0.090906 34.6609C0.0223177 34.8413 -0.00746563 35.0341 0.00349946 35.2268C0.0144646 35.4194 0.0659316 35.6076 0.154542 35.7791C0.418179 36.27 3.05454 40.5791 16.0818 40.5791C29.1091 40.5791 31.7182 36.2609 31.9727 35.77C32.0624 35.6023 32.1153 35.4175 32.1278 35.2278C32.1403 35.0381 32.1123 34.8479 32.0454 34.67C32.0454 34.6063 32.0454 34.5427 31.9727 34.4882C38.1818 33.2336 39.6909 30.6882 39.8455 30.3791C39.9329 30.2107 39.9846 30.026 39.9971 29.8367C40.0096 29.6474 39.9827 29.4575 39.9182 29.2791ZM23.9364 3.30634C25.5589 3.30915 27.123 3.912 28.3277 4.99884C29.5324 6.08569 30.2925 7.57971 30.4618 9.19337C30.6311 10.807 30.1975 12.4263 29.2445 13.7394C28.2916 15.0526 26.8866 15.9669 25.3 16.3063C25.3393 15.9622 25.3605 15.6163 25.3636 15.27C25.3604 13.2224 24.6815 11.2331 23.4323 9.61074C22.183 7.98838 20.4333 6.82365 18.4545 6.29724C19.0468 5.3815 19.8584 4.62824 20.8158 4.10591C21.7731 3.58358 22.8458 3.30873 23.9364 3.30634ZM16.0636 8.69724C17.3636 8.69724 18.6344 9.08273 19.7152 9.80495C20.7961 10.5272 21.6386 11.5537 22.136 12.7547C22.6335 13.9557 22.7637 15.2773 22.5101 16.5522C22.2565 17.8272 21.6305 18.9984 20.7113 19.9176C19.792 20.8368 18.6209 21.4628 17.3459 21.7164C16.0709 21.97 14.7494 21.8399 13.5484 21.3424C12.3474 20.8449 11.3208 20.0025 10.5986 18.9216C9.87639 17.8407 9.4909 16.5699 9.4909 15.27C9.4909 13.5268 10.1834 11.855 11.416 10.6224C12.6486 9.38973 14.3204 8.69724 16.0636 8.69724ZM16.0636 37.8518C7.15454 37.8518 3.88181 35.7609 2.90909 34.8882C5.1 29.37 7.96363 25.2518 11.0909 23.07C12.5819 24.0299 14.3176 24.5404 16.0909 24.5404C17.8642 24.5404 19.5999 24.0299 21.0909 23.07C24.2364 25.2063 27.1 29.3245 29.2727 34.8336C28.1818 35.77 24.9545 37.8518 16.0818 37.8518H16.0636ZM30.9091 31.9154C28.7818 27.1245 26.1454 23.4972 23.1455 21.2609C23.7067 20.6221 24.1777 19.9094 24.5455 19.1427C26.1159 19.0521 27.637 18.5607 28.9636 17.7154C32.1091 19.8518 34.9636 23.97 37.1455 29.4791C36.4091 30.0882 34.7 31.2336 30.9091 31.9154Z" fill="#5EC846"/>
</svg>
