<svg width="41" height="41" viewBox="0 0 41 41" fill="none" xmlns="http://www.w3.org/2000/svg">
<path d="M16.5818 29.4609C14.2455 29.4609 12.3545 30.37 12.3455 31.4518C12.3364 32.5336 14.2909 33.4882 16.6182 33.4972C18.9455 33.5063 20.7818 32.5882 20.7909 31.5063C20.8 30.4245 18.9091 29.47 16.5818 29.4609Z" fill="#25465F"/>
<path d="M40.4182 29.2791C38.1364 23.1063 35.0909 18.5154 31.5364 15.87C32.3798 14.853 32.9966 13.6678 33.3456 12.3935C33.6946 11.1192 33.7679 9.78509 33.5604 8.48025C33.3529 7.17541 32.8696 5.92982 32.1425 4.82661C31.4155 3.7234 30.4615 2.78794 29.3443 2.08265C28.227 1.37737 26.9722 0.918488 25.6636 0.736628C24.3549 0.554768 23.0225 0.654113 21.7553 1.02803C20.4881 1.40195 19.3152 2.04185 18.3149 2.90502C17.3146 3.76819 16.5099 4.83478 15.9545 6.03361C14.2336 6.1371 12.5755 6.71786 11.166 7.7108C9.75661 8.70373 8.6516 10.0696 7.97485 11.6553C7.2981 13.241 7.07637 14.9838 7.33451 16.6884C7.59265 18.3931 8.32046 19.9921 9.43636 21.3063C5.95454 23.9245 2.91818 28.5063 0.590906 34.6609C0.522318 34.8413 0.492534 35.0341 0.503499 35.2268C0.514465 35.4194 0.565932 35.6076 0.654542 35.7791C0.918179 36.27 3.55454 40.5791 16.5818 40.5791C29.6091 40.5791 32.2182 36.2609 32.4727 35.77C32.5624 35.6023 32.6153 35.4175 32.6278 35.2278C32.6403 35.0381 32.6123 34.848 32.5455 34.67C32.5455 34.6063 32.5455 34.5427 32.4727 34.4882C38.6818 33.2336 40.1909 30.6882 40.3455 30.3791C40.4329 30.2107 40.4846 30.026 40.4971 29.8367C40.5096 29.6474 40.4827 29.4575 40.4182 29.2791ZM24.4364 3.30634C26.0589 3.30915 27.623 3.912 28.8277 4.99884C30.0324 6.08569 30.7925 7.57971 30.9618 9.19337C31.1311 10.807 30.6975 12.4263 29.7445 13.7394C28.7916 15.0526 27.3866 15.9669 25.8 16.3063C25.8393 15.9622 25.8605 15.6163 25.8636 15.27C25.8604 13.2224 25.1815 11.2331 23.9323 9.61074C22.683 7.98838 20.9333 6.82365 18.9545 6.29725C19.5468 5.3815 20.3584 4.62824 21.3158 4.10591C22.2731 3.58358 23.3458 3.30873 24.4364 3.30634ZM16.5636 8.69725C17.8636 8.69725 19.1344 9.08273 20.2152 9.80495C21.2961 10.5272 22.1386 11.5537 22.636 12.7547C23.1335 13.9557 23.2637 15.2773 23.0101 16.5522C22.7565 17.8272 22.1305 18.9984 21.2113 19.9176C20.292 20.8368 19.1209 21.4628 17.8459 21.7164C16.5709 21.97 15.2494 21.8399 14.0484 21.3424C12.8474 20.8449 11.8208 20.0025 11.0986 18.9216C10.3764 17.8407 9.99091 16.5699 9.99091 15.27C9.99091 13.5268 10.6834 11.855 11.916 10.6224C13.1486 9.38973 14.8204 8.69725 16.5636 8.69725ZM16.5636 37.8518C7.65454 37.8518 4.38182 35.7609 3.40909 34.8882C5.6 29.37 8.46363 25.2518 11.5909 23.07C13.0819 24.0299 14.8176 24.5404 16.5909 24.5404C18.3642 24.5404 20.0999 24.0299 21.5909 23.07C24.7364 25.2063 27.6 29.3245 29.7727 34.8336C28.6818 35.77 25.4545 37.8518 16.5818 37.8518H16.5636ZM31.4091 31.9154C29.2818 27.1245 26.6455 23.4972 23.6455 21.2609C24.2067 20.6221 24.6777 19.9094 25.0455 19.1427C26.6159 19.0521 28.137 18.5607 29.4636 17.7154C32.6091 19.8518 35.4636 23.97 37.6455 29.4791C36.9091 30.0882 35.2 31.2336 31.4091 31.9154Z" fill="#25465F"/>
</svg>
